<svg transform="scale(1)" id="_0509_chart" xmlns="http://www.w3.org/2000/svg" xmlns:xlink="http://www.w3.org/1999/xlink" viewBox="0 0 500 500" class="show_show__wrapper__graphic__5Waiy "><title>React</title><defs><style>.cls-1{opacity:.29;}.cls-1,.cls-2,.cls-3,.cls-4,.cls-5,.cls-6,.cls-7,.cls-8,.cls-9{stroke-width:0px;}.cls-1,.cls-3{isolation:isolate;}.cls-1,.cls-3,.cls-9{fill:#28c3e7;}.cls-2{fill:url(#linear-gradient);}.cls-3{opacity:.18;}.cls-4{fill:url(#linear-gradient-4);}.cls-5{fill:url(#linear-gradient-2);}.cls-6{fill:url(#linear-gradient-3);}.cls-7{fill:url(#linear-gradient-5);}.cls-8{fill:url(#linear-gradient-6);}</style><linearGradient id="linear-gradient" x1="135.31" y1="2027.52" x2="505.94" y2="2027.52" gradientTransform="translate(-62.16 2283.2) scale(1 -1)" gradientUnits="userSpaceOnUse"><stop offset="0" stop-color="#fff"></stop><stop offset="1" stop-color="#fff" stop-opacity="0"></stop></linearGradient><linearGradient id="linear-gradient-2" x1="319.16" y1="2034.46" x2="322.47" y2="1883.18" xlink:href="#linear-gradient"></linearGradient><linearGradient id="linear-gradient-3" x1="-1590.35" y1="-504.69" x2="-2092.2" y2="-578.31" gradientTransform="translate(595.29 2078.32) rotate(90) scale(1 -1)" gradientUnits="userSpaceOnUse"><stop offset="0" stop-color="#231f20"></stop><stop offset=".08" stop-color="#231f20" stop-opacity=".69"></stop><stop offset=".21" stop-color="#231f20" stop-opacity=".32"></stop><stop offset="1" stop-color="#231f20" stop-opacity="0"></stop></linearGradient><linearGradient id="linear-gradient-4" x1="-1594.44" y1="-476.81" x2="-2096.3" y2="-550.43" xlink:href="#linear-gradient-3"></linearGradient><linearGradient id="linear-gradient-5" x1="-1590.36" y1="-504.69" x2="-2092.21" y2="-578.31" xlink:href="#linear-gradient-3"></linearGradient><linearGradient id="linear-gradient-6" x1="-1668.71" y1="-511.73" x2="-1952.88" y2="-554.07" xlink:href="#linear-gradient-3"></linearGradient></defs><g id="background"><path class="cls-3" d="M172.56,46.09c-26.42,14.18-45.66,40.11-54.22,68.84-5.07,17.01-6.65,34.95-12.43,51.7-16.44,47.74-63.85,78.8-84.06,125.04-11.26,25.76-18.33,48.05-11.51,83.51,5.31,27.6,30.67,48.84,57.19,58.18,16.23,5.72,41.51,5.31,58.72,5.86,32.23,1.03,64.71,1.14,96.44-4.58,15.11-2.73,30-6.77,45.25-8.54,29.51-3.41,59.64,1.75,88.95-2.98,20.42-3.31,39.77-11.36,58.28-20.63,13.88-6.96,27.53-14.75,38.98-25.25,30.29-27.78,41.51-72.83,33.37-113.11-8.14-40.29-33.71-75.67-65.9-101.22-14.15-11.23-29.57-20.75-44.41-31.06-19.11-13.28-37.27-27.88-54.33-43.71-40.85-37.89-93.53-72.53-150.3-42.06Z"></path><path class="cls-1" d="M132.27,387.86h308.39s20.95-14.61,29.11-28.85v-78.69s-48.09-48.56-48.09-39.87-24.63,88.95-24.63,88.95l-77.53-12.78-246.37,17.97v93.9s43.82,4.24,59.12-40.62Z"></path></g><g id="data"><path class="cls-2" d="M443.78,144.79h-.53v-.67H73.21v.67h-.07v221.79h.07v.67h370.03v-.67h.53v-221.79ZM228.2,244.03h29.72v23.31h-29.72v-23.31ZM227.13,267.34h-29.72v-23.31h29.72v23.31ZM259,244.04h29.72v23.31h-29.72v-23.31ZM289.8,244.04h29.72v23.31h-29.72v-23.31ZM289.8,242.72v-23.33h29.72v23.31l-29.72.03ZM288.72,242.72h-29.72v-23.33h29.72v23.33ZM257.92,242.72h-29.72v-23.33h29.72v23.33ZM227.13,242.72h-29.72v-23.33h29.72v23.33ZM196.33,242.72h-29.72v-23.33h29.72v23.33ZM196.33,244.04v23.31h-29.72v-23.31h29.72ZM196.33,268.68v23.31h-29.72v-23.33l29.72.02ZM197.41,268.68h29.72v23.31h-29.72v-23.31ZM228.2,268.68h29.72v23.31h-29.72v-23.31ZM259,268.68h29.72v23.31h-29.72v-23.31ZM289.8,268.68h29.72v23.31h-29.72v-23.31ZM320.59,268.68h29.72v23.31h-29.72v-23.31ZM320.59,267.36v-23.33h29.72v23.31l-29.72.02ZM320.59,242.72v-23.33h29.72v23.31l-29.72.03ZM320.59,218.08v-23.33h29.72v23.31l-29.72.03ZM319.52,218.08h-29.72v-23.33h29.72v23.33ZM288.72,218.08h-29.72v-23.33h29.72v23.33ZM257.92,218.08h-29.72v-23.33h29.72v23.33ZM227.13,218.08h-29.72v-23.33h29.72v23.33ZM196.33,218.08h-29.72v-23.33h29.72v23.33ZM165.54,218.08h-29.72v-23.33h29.72v23.33ZM165.54,219.41v23.31h-29.72v-23.33l29.72.03ZM165.54,244.06v23.28h-29.72v-23.31l29.72.03ZM165.54,268.7v23.31h-29.72v-23.35l29.72.04ZM165.54,293.34v23.31h-29.72v-23.33l29.72.03ZM166.61,293.34h29.72v23.31h-29.72v-23.31ZM197.41,293.34h29.72v23.31h-29.72v-23.31ZM228.2,293.34h29.72v23.31h-29.72v-23.31ZM259,293.34h29.72v23.31h-29.72v-23.31ZM289.8,293.34h29.72v23.31h-29.72v-23.31ZM320.59,293.34h29.72v23.31h-29.72v-23.31ZM351.39,293.34h29.73v23.31h-29.73v-23.31ZM351.39,292.03v-23.37h29.73v23.31l-29.73.07ZM351.39,267.39v-23.35h29.73v23.31l-29.73.04ZM351.39,242.74v-23.35h29.73v23.31l-29.73.05ZM351.39,218.1v-23.35h29.73v23.31l-29.73.05ZM351.39,193.46v-23.35h29.73v23.31l-29.73.05ZM350.31,193.46h-29.72v-23.35h29.72v23.35ZM319.52,193.46h-29.72v-23.35h29.72v23.35ZM288.72,193.46h-29.72v-23.35h29.72v23.35ZM257.92,193.46h-29.72v-23.35h29.72v23.35ZM227.13,193.46h-29.72v-23.35h29.72v23.35ZM196.33,193.46h-29.72v-23.35h29.72v23.35ZM165.54,193.46h-29.72v-23.35h29.72v23.35ZM134.74,193.46h-29.72v-23.35h29.72v23.35ZM134.74,194.79v23.31h-29.72v-23.35l29.72.05ZM134.74,219.44v23.31h-29.72v-23.35l29.72.05ZM134.74,244.08v23.26h-29.72v-23.31l29.72.05ZM134.74,268.72v23.31h-29.72v-23.37l29.72.07ZM134.74,293.36v23.31h-29.72v-23.35l29.72.05ZM134.74,318.01v23.31h-29.72v-23.35l29.72.05ZM135.81,318.01h29.72v23.31h-29.72v-23.31ZM166.61,318.01h29.72v23.31h-29.72v-23.31ZM197.41,318.01h29.72v23.31h-29.72v-23.31ZM228.2,318.01h29.72v23.31h-29.72v-23.31ZM259,318.01h29.72v23.31h-29.72v-23.31ZM289.8,318.01h29.72v23.31h-29.72v-23.31ZM320.59,318.01h29.72v23.31h-29.72v-23.31ZM351.39,318.01h29.73v23.31h-29.73v-23.31ZM382.19,318.01h29.72v23.31h-29.72v-23.31ZM382.19,316.69v-23.38h29.72v23.31l-29.72.07ZM382.19,292.05v-23.39h29.72v23.31l-29.72.09ZM382.19,267.41v-23.38h29.72v23.31l-29.72.07ZM382.19,242.76v-23.38h29.72v23.31l-29.72.07ZM382.19,218.12v-23.38h29.72v23.31l-29.72.07ZM382.19,193.48v-23.38h29.72v23.31l-29.72.07ZM382.19,168.84v-23.38h29.72v23.29l-29.72.08ZM381.11,168.84h-29.73v-23.38h29.73v23.38ZM350.31,168.84h-29.72v-23.38h29.72v23.38ZM319.52,168.84h-29.72v-23.38h29.72v23.38ZM288.72,168.84h-29.72v-23.38h29.72v23.38ZM257.92,168.84h-29.72v-23.38h29.72v23.38ZM227.13,168.84h-29.72v-23.38h29.72v23.38ZM196.33,168.84h-29.72v-23.38h29.72v23.38ZM165.54,168.84h-29.72v-23.38h29.72v23.38ZM134.74,168.84h-29.72v-23.38h29.72v23.38ZM103.94,168.84h-29.72v-23.38h29.72v23.38ZM103.94,170.17v23.31h-29.72v-23.38l29.72.07ZM103.94,194.82v23.31h-29.72v-23.38l29.72.07ZM103.94,219.46v23.31h-29.72v-23.38l29.72.07ZM103.94,244.1v23.24h-29.72v-23.31l29.72.07ZM103.94,268.74v23.31h-29.72v-23.39l29.72.09ZM103.94,293.39v23.31h-29.72v-23.38l29.72.07ZM103.94,318.03v23.31h-29.72v-23.38l29.72.07ZM103.94,342.67v23.26h-29.72v-23.33l29.72.07ZM105.01,342.67h29.72v23.26h-29.72v-23.26ZM135.81,342.67h29.72v23.26h-29.72v-23.26ZM166.61,342.67h29.72v23.26h-29.72v-23.26ZM197.41,342.67h29.72v23.26h-29.72v-23.26ZM228.2,342.67h29.72v23.26h-29.72v-23.26ZM259,342.67h29.72v23.26h-29.72v-23.26ZM289.8,342.67h29.72v23.26h-29.72v-23.26ZM320.59,342.67h29.72v23.26h-29.72v-23.26ZM351.39,342.67h29.73v23.26h-29.73v-23.26ZM382.19,342.67h29.72v23.26h-29.72v-23.26ZM412.98,342.67h29.71v23.26h-29.71v-23.26ZM412.98,341.36v-23.4h29.71v23.31l-29.71.09ZM412.98,316.72v-23.4h29.71v23.31l-29.71.09ZM412.98,292.07v-23.42h29.71v23.31l-29.71.11ZM412.98,267.43v-23.4h29.71v23.31l-29.71.09ZM412.98,242.79v-23.4h29.71v23.31l-29.71.09ZM412.98,218.14v-23.4h29.71v23.31l-29.71.09ZM412.98,193.5v-23.4h29.71v23.31l-29.71.09ZM412.98,168.86v-23.4h29.71v23.29l-29.71.11Z"></path><path class="cls-9" d="M443.78,264.38v102.24H73.15v-101.97c1.2-1.16,29.84-28.58,52.66-18.92,10.33,4.38,15.54,10.95,19.72,16.27,4.95,6.27,8.21,10.42,17.44,9.11,8.48-1.21,14.59-9.77,21.05-18.84,6.94-9.73,14.11-19.77,24.95-20.47,12.71-.78,20.34,12.98,27.07,25.16,4.51,8.19,8.76,15.94,13.76,18.4,5.09,2.55,7.91-.65,13.15-8.55,3.74-5.66,7.99-12.07,14.84-12.07,8.01,0,13.01,12.82,18.79,27.67,4.46,11.42,9.51,24.38,14.8,26.05.73.23,1.88.4,3.6-.76,6.71-4.45,10.16-10.52,13.2-15.81,4.26-7.45,8.29-14.46,19.48-12.4,10.19,1.89,15.13,11.09,19.12,18.47,3.01,5.6,5.63,10.42,9.31,10.62h.14c.54-.07,7.37-1.54,13.58-25.8,5.42-21.29,16.43-38.56,27.36-43,3.73-1.52,7.23-1.38,10.16.44,10.18,6.27,16.21,23.43,16.46,24.16Z"></path><path class="cls-5" d="M443.78,264.38v102.24H73.15v-101.97c1.2-1.16,29.84-28.58,52.66-18.92,10.33,4.38,15.54,10.95,19.72,16.27,4.95,6.27,8.21,10.42,17.44,9.11,8.48-1.21,14.59-9.77,21.05-18.84,6.94-9.73,14.11-19.77,24.95-20.47,12.71-.78,20.34,12.98,27.07,25.16,4.51,8.19,8.76,15.94,13.76,18.4,5.09,2.55,7.91-.65,13.15-8.55,3.74-5.66,7.99-12.07,14.84-12.07,8.01,0,13.01,12.82,18.79,27.67,4.46,11.42,9.51,24.38,14.8,26.05.73.23,1.88.4,3.6-.76,6.71-4.45,10.16-10.52,13.2-15.81,4.26-7.45,8.29-14.46,19.48-12.4,10.19,1.89,15.13,11.09,19.12,18.47,3.01,5.6,5.63,10.42,9.31,10.62h.14c.54-.07,7.37-1.54,13.58-25.8,5.42-21.29,16.43-38.56,27.36-43,3.73-1.52,7.23-1.38,10.16.44,10.18,6.27,16.21,23.43,16.46,24.16Z"></path><path class="cls-9" d="M443.78,264.38l-4.38,1.52c-.05-.17-5.72-16.33-14.5-21.69-1.62-1-3.65-1.03-5.98-.08-8.01,3.25-19.03,17.97-24.61,39.87-7.37,28.83-16.42,29.57-18.58,29.27-6.2-.4-9.52-6.57-13.02-13.05-3.88-7.19-7.89-14.62-15.89-16.11-7.59-1.41-10.11,2.3-14.6,10.14-3.14,5.49-7.05,12.31-14.65,17.38-1.51,1.07-3.3,1.66-5.15,1.7-.82,0-1.64-.13-2.43-.37-7.41-2.35-12.41-15.2-17.72-28.8-4.3-11.01-9.64-24.72-14.48-24.72-4.36,0-7.58,4.85-10.95,9.99-4.38,6.6-9.78,14.8-19.08,10.14-6.27-3.14-10.88-11.48-15.77-20.33-6.35-11.52-12.97-23.42-22.69-22.79-8.65.56-14.9,9.28-21.47,18.52-6.76,9.46-13.74,19.25-24.18,20.73-11.86,1.69-16.65-4.38-21.75-10.84-4.05-5.13-8.65-10.95-17.89-14.85-19.99-8.48-47.37,17.72-47.63,17.98l-3.22-3.34c1.2-1.16,29.84-28.58,52.66-18.92,10.33,4.38,15.54,10.95,19.72,16.27,4.95,6.27,8.21,10.42,17.44,9.11,8.48-1.21,14.59-9.77,21.05-18.84,6.94-9.73,14.11-19.77,24.95-20.47,12.71-.78,20.34,12.98,27.07,25.16,4.51,8.19,8.76,15.94,13.76,18.4,5.09,2.55,7.91-.65,13.15-8.55,3.74-5.66,7.99-12.07,14.84-12.07,8.01,0,13.01,12.82,18.79,27.67,4.46,11.42,9.51,24.38,14.8,26.05.73.23,1.88.4,3.6-.76,6.71-4.45,10.16-10.52,13.2-15.81,4.26-7.45,8.29-14.46,19.48-12.4,10.19,1.89,15.13,11.09,19.12,18.47,3.01,5.6,5.63,10.42,9.31,10.62h.14c.54-.07,7.37-1.54,13.58-25.8,5.42-21.29,16.43-38.56,27.36-43,3.73-1.52,7.23-1.38,10.16.44,10.17,6.27,16.2,23.43,16.44,24.16Z"></path><path class="cls-9" d="M443.01,370.34H73.15c-.85,0-1.55-.69-1.55-1.55h0v-224.06c0-.85.69-1.55,1.55-1.55.85,0,1.55.69,1.55,1.55h0v222.52h368.31c.85,0,1.55.69,1.55,1.55,0,.85-.69,1.54-1.55,1.55Z"></path><circle class="cls-9" cx="210.19" cy="234.01" r="8.7"></circle><circle class="cls-9" cx="421.68" cy="240.47" r="8.7"></circle><path class="cls-9" d="M80.71,397.18c12.77-3.43,21.65-15,21.66-28.22h-5.16c0,2.1-.28,4.2-.82,6.23-.54,2.03-1.35,3.98-2.41,5.8-2.11,3.66-5.15,6.69-8.8,8.81-7.44,4.31-16.62,4.31-24.06,0-3.66-2.11-6.69-5.15-8.8-8.81l-4.46,2.58c2.56,4.44,6.25,8.13,10.69,10.69,6.71,3.89,14.68,4.94,22.17,2.93h0Z"></path><path class="cls-9" d="M86.05,417.11c21.8-5.84,36.95-25.59,36.95-48.16h-5.16c-.02,24.68-20.04,44.68-44.73,44.66-15.94-.01-30.67-8.51-38.65-22.31-.57-.97-1.1-1.96-1.59-2.98-2.9-6.05-4.41-12.67-4.41-19.37h0c.02-11.85,4.73-23.21,13.11-31.59,2.76-2.76,5.87-5.15,9.25-7.1,6.79-3.94,14.5-6.01,22.35-6h0v-5.16h0c-27.52-.01-49.85,22.29-49.86,49.82,0,.01,0,.02,0,.04h0c0,27.52,22.3,49.84,49.82,49.85h.03c4.36,0,8.7-.57,12.9-1.7Z"></path><path class="cls-9" d="M83.39,407.14c6.7-1.81,12.8-5.34,17.71-10.24,2.44-2.44,4.54-5.19,6.27-8.18,3.48-6,5.32-12.81,5.32-19.75h-5.16c0,6.03-1.59,11.96-4.62,17.17-7.77,13.48-23.63,20.06-38.66,16.02-5.82-1.58-11.13-4.65-15.4-8.91-2.12-2.13-3.96-4.52-5.46-7.12-3.03-5.22-4.62-11.15-4.62-17.18h0c0-6.04,1.59-11.96,4.62-17.19l-4.46-2.58c-3.48,6-5.31,12.82-5.31,19.76h0c0,6.94,1.83,13.76,5.31,19.76,3.47,6.01,8.45,10.99,14.46,14.46,9.08,5.25,19.87,6.67,29.99,3.94v.02Z"></path><path class="cls-9" d="M78.03,387.2c1.6-.42,3.13-1.06,4.56-1.88,2.89-1.64,5.28-4.03,6.93-6.91,1.65-2.87,2.53-6.13,2.55-9.44h-5.18c-.01,2.41-.65,4.78-1.85,6.87-1.2,2.1-2.93,3.83-5.03,5.03-1.04.6-2.15,1.06-3.31,1.37-1.16.31-2.35.48-3.55.48v5.16c1.65,0,3.3-.23,4.89-.67Z"></path><path class="cls-9" d="M52.32,380.98c-2.12-3.65-3.24-7.8-3.23-12.02h0c.01-6.38,2.55-12.5,7.05-17.01,1.49-1.48,3.16-2.77,4.98-3.83,7.44-4.31,16.62-4.31,24.06,0,1.82,1.06,3.49,2.34,4.98,3.83,1.48,1.49,2.77,3.16,3.82,4.98,2.12,3.65,3.23,7.8,3.23,12.03h5.16c0-16.14-13.1-29.22-29.24-29.21-7.74,0-15.16,3.08-20.64,8.55-1.8,1.81-3.36,3.84-4.64,6.05-2.58,4.43-3.94,9.47-3.94,14.6h0c0,5.13,1.36,10.17,3.94,14.6l4.46-2.58Z"></path><path class="cls-9" d="M123,368.95c0-27.52-22.3-49.84-49.82-49.85h-.03v5.16c7.85,0,15.56,2.07,22.35,6,6.79,3.92,12.43,9.56,16.35,16.35.56.97,1.1,1.96,1.59,2.98,2.9,6.04,4.41,12.66,4.42,19.36h5.14Z"></path><path class="cls-9" d="M73.15,382.7c-4.91,0-9.45-2.62-11.9-6.88-1.2-2.09-1.84-4.46-1.86-6.87h0c.02-2.41.66-4.78,1.86-6.87,3.82-6.58,12.26-8.81,18.83-4.99,1.01.59,1.95,1.31,2.78,2.13.85.85,1.59,1.81,2.19,2.85,1.2,2.09,1.83,4.46,1.84,6.87h5.16c-.02-8.55-5.76-16.03-14.02-18.25-10.13-2.67-20.5,3.38-23.17,13.5-.41,1.55-.62,3.14-.63,4.74h0c.02,3.32.9,6.57,2.55,9.44,1.64,2.88,4.03,5.27,6.91,6.91,2.88,1.65,6.13,2.53,9.44,2.55v-5.16Z"></path><path class="cls-9" d="M111.33,358.72c-.89-3.33-2.22-6.54-3.94-9.53-3.47-6.01-8.45-10.99-14.46-14.46-12.22-7.08-27.3-7.08-39.52,0-6,3.47-10.99,8.46-14.46,14.46l4.46,2.58c3.01-5.22,7.34-9.55,12.55-12.57,10.62-6.17,23.74-6.17,34.36,0,10.64,6.13,17.2,17.48,17.2,29.76h5.16c0-3.46-.45-6.9-1.35-10.24Z"></path><path class="cls-6" d="M52.32,380.98c-2.12-3.65-3.24-7.8-3.23-12.02h0c.01-6.38,2.55-12.5,7.05-17.01,1.49-1.48,3.16-2.77,4.98-3.83,7.44-4.31,16.62-4.31,24.06,0,1.82,1.06,3.49,2.34,4.98,3.83,1.48,1.49,2.77,3.16,3.82,4.98,2.12,3.65,3.23,7.8,3.23,12.03h5.16c0-16.14-13.1-29.22-29.24-29.21-7.74,0-15.16,3.08-20.64,8.55-1.8,1.81-3.36,3.84-4.64,6.05-2.58,4.43-3.94,9.47-3.94,14.6h0c0,5.13,1.36,10.17,3.94,14.6l4.46-2.58Z"></path><path class="cls-4" d="M123,368.95c0-27.52-22.3-49.84-49.82-49.85h-.03v5.16c7.85,0,15.56,2.07,22.35,6,6.79,3.92,12.43,9.56,16.35,16.35.56.97,1.1,1.96,1.59,2.98,2.9,6.04,4.41,12.66,4.42,19.36h5.14Z"></path><path class="cls-7" d="M73.15,382.7c-4.91,0-9.45-2.62-11.9-6.88-1.2-2.09-1.84-4.46-1.86-6.87h0c.02-2.41.66-4.78,1.86-6.87,3.82-6.58,12.26-8.81,18.83-4.99,1.01.59,1.95,1.31,2.78,2.13.85.85,1.59,1.81,2.19,2.85,1.2,2.09,1.83,4.46,1.84,6.87h5.16c-.02-8.55-5.76-16.03-14.02-18.25-10.13-2.67-20.5,3.38-23.17,13.5-.41,1.55-.62,3.14-.63,4.74h0c.02,3.32.9,6.57,2.55,9.44,1.64,2.88,4.03,5.27,6.91,6.91,2.88,1.65,6.13,2.53,9.44,2.55v-5.16Z"></path><path class="cls-8" d="M111.33,358.72c-.89-3.33-2.22-6.54-3.94-9.53-3.47-6.01-8.45-10.99-14.46-14.46-12.22-7.08-27.3-7.08-39.52,0-6,3.47-10.99,8.46-14.46,14.46l4.46,2.58c3.01-5.22,7.34-9.55,12.55-12.57,10.62-6.17,23.74-6.17,34.36,0,10.64,6.13,17.2,17.48,17.2,29.76h5.16c0-3.46-.45-6.9-1.35-10.24Z"></path></g></svg>