<svg width="59" height="59" viewBox="0 0 59 59" fill="none" xmlns="http://www.w3.org/2000/svg">
<path fill-rule="evenodd" clip-rule="evenodd" d="M35.3088 49.5832C36.393 50.0819 37.5066 50.5142 38.6433 50.8778C44.0979 52.5997 47.6894 51.7452 49.6169 49.8178C51.5443 47.8935 52.3988 44.2988 50.677 38.8474C50.3131 37.7082 49.8797 36.5925 49.3791 35.5065C47.3601 38.1532 45.163 40.6593 42.8033 43.0074C40.4565 45.3663 37.9514 47.5623 35.3056 49.58L35.3088 49.5832ZM29.1731 46.0817C32.4336 43.8311 35.4762 41.28 38.261 38.4619C41.0767 35.6779 43.6256 32.6363 45.8744 29.3772C43.6259 26.1168 41.077 23.0742 38.261 20.2893C35.4759 17.4734 32.4333 14.9245 29.1731 12.6758C25.9139 14.9246 22.8724 17.4735 20.0884 20.2893C17.2702 23.074 14.7191 26.1166 12.4685 29.3772C14.7173 32.6363 17.2663 35.6778 20.0819 38.4619C23.1755 41.5554 26.2369 44.0836 29.1731 46.0817ZM8.96699 35.5097C10.8623 38.0089 13.0596 40.521 15.546 43.0074C17.8918 45.3662 20.3958 47.5621 23.0406 49.58C21.9556 50.0804 20.8409 50.5138 19.7029 50.8778C14.2514 52.5997 10.6567 51.7452 8.72927 49.821C6.80182 47.8935 5.95053 44.302 7.67239 38.8474C8.00969 37.7776 8.44336 36.6629 8.9702 35.5065L8.96699 35.5097ZM4.90329 29.3772C3.43843 31.9567 2.31729 34.4849 1.54953 36.9103C-0.522478 43.4732 -0.153051 50.0169 4.19013 54.3633C8.53652 58.7097 15.0802 59.0791 21.6432 57.0039C24.2635 56.1525 26.7873 55.0284 29.1731 53.6502C31.7526 55.115 34.2808 56.2361 36.7062 57.0039C43.2723 59.0759 49.8128 58.7065 54.1592 54.3633C58.5056 50.0169 58.875 43.4732 56.7998 36.9103C55.9485 34.2888 54.8244 31.764 53.446 29.3772C54.9109 26.7976 56.032 24.2694 56.7998 21.8441C58.875 15.2811 58.5056 8.73742 54.1592 4.39103C49.816 0.0446309 43.2691 -0.324797 36.7062 1.75042C34.0847 2.60167 31.5598 3.72575 29.1731 5.10418C26.7863 3.72575 24.2614 2.60167 21.64 1.75042C15.077 -0.324797 8.53331 0.0446309 4.18692 4.39103C-0.159475 8.73742 -0.52569 15.2811 1.54632 21.8441C2.39756 24.4655 3.52164 26.9904 4.90007 29.3772H4.90329ZM8.97341 23.2447C10.8687 20.7454 13.0628 18.2333 15.5492 15.7469C17.8951 13.3882 20.3991 11.1922 23.0438 9.17431C21.9587 8.67399 20.8441 8.24058 19.7061 7.87649C14.2546 6.15464 10.6599 7.00914 8.73248 8.93338C6.80503 10.8608 5.95375 14.4523 7.6756 19.907C8.0129 20.9767 8.44658 22.0914 8.97341 23.2479V23.2447ZM35.3088 9.17431C36.3938 8.67398 37.5085 8.24056 38.6465 7.87649C44.1011 6.15464 47.6926 7.00914 49.6201 8.93338C51.5475 10.8608 52.402 14.4523 50.6802 19.907C50.3396 20.9767 49.9092 22.0914 49.3823 23.2479C47.3637 20.6008 45.1666 18.0947 42.8065 15.7469C40.4597 13.3881 37.9546 11.1921 35.3088 9.17431ZM33.9917 29.3772C33.9915 30.01 33.8666 30.6365 33.6243 31.2211C33.3819 31.8056 33.0268 32.3367 32.5792 32.784C32.1316 33.2313 31.6003 33.586 31.0156 33.828C30.4309 34.07 29.8042 34.1944 29.1715 34.1942C28.5387 34.194 27.9121 34.0691 27.3276 33.8268C26.743 33.5844 26.2119 33.2293 25.7646 32.7817C25.3173 32.3341 24.9626 31.8028 24.7206 31.2181C24.4787 30.6334 24.3542 30.0067 24.3544 29.374C24.3544 28.096 24.8621 26.8703 25.7658 25.9667C26.6694 25.063 27.8951 24.5553 29.1731 24.5553C30.451 24.5553 31.6767 25.063 32.5803 25.9667C33.484 26.8703 33.9917 28.096 33.9917 29.374V29.3772Z" fill="black"/>
</svg>
