<svg width="75" height="63" viewBox="0 0 75 63" fill="none" xmlns="http://www.w3.org/2000/svg">
<path d="M74.5312 31.2657C74.528 27.9956 73.5988 24.7933 71.8512 22.0294C70.1036 19.2654 67.609 17.0529 64.6562 15.6477V15.2188C64.6534 12.0379 63.6266 8.94235 61.7279 6.39028C59.8292 3.8382 57.1593 1.96514 54.1134 1.04825C51.0675 0.131363 47.8073 0.21935 44.8153 1.29919C41.8233 2.37904 39.2583 4.39337 37.5 7.04415C35.7417 4.39337 33.1767 2.37904 30.1847 1.29919C27.1927 0.21935 23.9325 0.131363 20.8866 1.04825C17.8407 1.96514 15.1708 3.8382 13.2721 6.39028C11.3733 8.94235 10.3466 12.0379 10.3437 15.2188V15.6477C7.38846 17.049 4.8915 19.2602 3.14304 22.0243C1.39459 24.7884 0.466431 27.9919 0.466431 31.2626C0.466431 34.5333 1.39459 37.7368 3.14304 40.5009C4.8915 43.265 7.38846 45.4761 10.3437 46.8774V47.3125C10.3466 50.4935 11.3733 53.589 13.2721 56.1411C15.1708 58.6931 17.8407 60.5662 20.8866 61.4831C23.9325 62.4 27.1927 62.312 30.1847 61.2322C33.1767 60.1523 35.7417 58.138 37.5 55.4872C39.2583 58.138 41.8233 60.1523 44.8153 61.2322C47.8073 62.312 51.0675 62.4 54.1134 61.4831C57.1593 60.5662 59.8292 58.6931 61.7279 56.1411C63.6266 53.589 64.6534 50.4935 64.6562 47.3125V46.8774C67.6086 45.4734 70.1029 43.2619 71.8505 40.499C73.5981 37.7362 74.5276 34.5349 74.5312 31.2657ZM25.1562 57.1875C22.7213 57.1872 20.3723 56.2872 18.5604 54.6605C16.7486 53.0338 15.6016 50.795 15.3399 48.3741C16.1382 48.488 16.9436 48.5458 17.75 48.5469H20.2187C20.8735 48.5469 21.5014 48.2868 21.9644 47.8238C22.4274 47.3609 22.6875 46.7329 22.6875 46.0782C22.6875 45.4234 22.4274 44.7955 21.9644 44.3325C21.5014 43.8695 20.8735 43.6094 20.2187 43.6094H17.75C14.8355 43.6128 12.0138 42.5849 9.78451 40.7075C7.55519 38.8302 6.06204 36.2246 5.56942 33.3521C5.07681 30.4795 5.6165 27.5253 7.09294 25.0125C8.56939 22.4996 10.8873 20.5903 13.6364 19.6224C14.1175 19.4521 14.5339 19.137 14.8284 18.7203C15.123 18.3036 15.2812 17.8059 15.2812 17.2956V15.2188C15.2812 12.5998 16.3216 10.088 18.1736 8.23612C20.0255 6.38419 22.5372 5.3438 25.1562 5.3438C27.7753 5.3438 30.287 6.38419 32.1389 8.23612C33.9908 10.088 35.0312 12.5998 35.0312 15.2188V36.2834C32.3203 33.8452 28.8024 32.4974 25.1562 32.5C24.5015 32.5 23.8736 32.7601 23.4106 33.2231C22.9476 33.6861 22.6875 34.314 22.6875 34.9688C22.6875 35.6236 22.9476 36.2515 23.4106 36.7145C23.8736 37.1774 24.5015 37.4375 25.1562 37.4375C27.7753 37.4375 30.287 38.4779 32.1389 40.3299C33.9908 42.1818 35.0312 44.6935 35.0312 47.3125C35.0312 49.9316 33.9908 52.4433 32.1389 54.2952C30.287 56.1471 27.7753 57.1875 25.1562 57.1875ZM57.25 43.6094H54.7812C54.1265 43.6094 53.4986 43.8695 53.0356 44.3325C52.5726 44.7955 52.3125 45.4234 52.3125 46.0782C52.3125 46.7329 52.5726 47.3609 53.0356 47.8238C53.4986 48.2868 54.1265 48.5469 54.7812 48.5469H57.25C58.0564 48.5458 58.8618 48.488 59.6601 48.3741C59.455 50.2709 58.7048 52.0677 57.5003 53.5473C56.2957 55.0268 54.6883 56.1257 52.8725 56.7112C51.0567 57.2966 49.1101 57.3435 47.2682 56.8461C45.4263 56.3488 43.7678 55.3285 42.4934 53.9087C41.219 52.4889 40.3832 50.7303 40.0871 48.8455C39.7909 46.9608 40.047 45.0306 40.8245 43.2883C41.602 41.546 42.8676 40.0663 44.4682 39.028C46.0688 37.9897 47.9359 37.4373 49.8437 37.4375C50.4985 37.4375 51.1264 37.1774 51.5894 36.7145C52.0524 36.2515 52.3125 35.6236 52.3125 34.9688C52.3125 34.314 52.0524 33.6861 51.5894 33.2231C51.1264 32.7601 50.4985 32.5 49.8437 32.5C46.1976 32.4974 42.6797 33.8452 39.9687 36.2834V15.2188C39.9687 12.5998 41.0091 10.088 42.8611 8.23612C44.713 6.38419 47.2247 5.3438 49.8437 5.3438C52.4628 5.3438 54.9745 6.38419 56.8264 8.23612C58.6783 10.088 59.7187 12.5998 59.7187 15.2188V17.2956C59.7188 17.8059 59.877 18.3036 60.1716 18.7203C60.4661 19.137 60.8825 19.4521 61.3636 19.6224C64.1126 20.5903 66.4306 22.4996 67.9071 25.0125C69.3835 27.5253 69.9232 30.4795 69.4306 33.3521C68.938 36.2246 67.4448 38.8302 65.2155 40.7075C62.9862 42.5849 60.1645 43.6128 57.25 43.6094ZM62.1875 27.5625C62.1875 28.2173 61.9274 28.8452 61.4644 29.3082C61.0014 29.7712 60.3735 30.0313 59.7187 30.0313H58.4844C55.538 30.0313 52.7123 28.8608 50.6289 26.7774C48.5454 24.694 47.375 21.8683 47.375 18.9219V17.6875C47.375 17.0328 47.6351 16.4049 48.0981 15.9419C48.5611 15.4789 49.189 15.2188 49.8437 15.2188C50.4985 15.2188 51.1264 15.4789 51.5894 15.9419C52.0524 16.4049 52.3125 17.0328 52.3125 17.6875V18.9219C52.3125 20.5588 52.9627 22.1286 54.1202 23.2861C55.2776 24.4435 56.8475 25.0938 58.4844 25.0938H59.7187C60.3735 25.0938 61.0014 25.3539 61.4644 25.8169C61.9274 26.2799 62.1875 26.9078 62.1875 27.5625ZM16.5156 30.0313H15.2812C14.6265 30.0313 13.9986 29.7712 13.5356 29.3082C13.0726 28.8452 12.8125 28.2173 12.8125 27.5625C12.8125 26.9078 13.0726 26.2799 13.5356 25.8169C13.9986 25.3539 14.6265 25.0938 15.2812 25.0938H16.5156C18.1525 25.0938 19.7223 24.4435 20.8798 23.2861C22.0372 22.1286 22.6875 20.5588 22.6875 18.9219V17.6875C22.6875 17.0328 22.9476 16.4049 23.4106 15.9419C23.8736 15.4789 24.5015 15.2188 25.1562 15.2188C25.811 15.2188 26.4389 15.4789 26.9019 15.9419C27.3649 16.4049 27.625 17.0328 27.625 17.6875V18.9219C27.625 21.8683 26.4545 24.694 24.3711 26.7774C22.2877 28.8608 19.462 30.0313 16.5156 30.0313Z" fill="black"/>
</svg>
