<svg width="65" height="65" viewBox="0 0 65 65" fill="none" xmlns="http://www.w3.org/2000/svg">
<path d="M32.5 50.1458C39.9754 50.1458 46.2958 45.4616 48.8945 38.9166H16.1054C18.672 45.4616 25.0245 50.1458 32.5 50.1458ZM21.2708 29.2916C22.5471 29.2916 23.7712 28.7846 24.6737 27.8821C25.5763 26.9796 26.0833 25.7555 26.0833 24.4791C26.0833 23.2028 25.5763 21.9787 24.6737 21.0762C23.7712 20.1737 22.5471 19.6666 21.2708 19.6666C19.9944 19.6666 18.7704 20.1737 17.8678 21.0762C16.9653 21.9787 16.4583 23.2028 16.4583 24.4791C16.4583 25.7555 16.9653 26.9796 17.8678 27.8821C18.7704 28.7846 19.9944 29.2916 21.2708 29.2916ZM43.7291 29.2916C45.0055 29.2916 46.2296 28.7846 47.1321 27.8821C48.0346 26.9796 48.5416 25.7555 48.5416 24.4791C48.5416 23.2028 48.0346 21.9787 47.1321 21.0762C46.2296 20.1737 45.0055 19.6666 43.7291 19.6666C42.4528 19.6666 41.2287 20.1737 40.3262 21.0762C39.4237 21.9787 38.9166 23.2028 38.9166 24.4791C38.9166 25.7555 39.4237 26.9796 40.3262 27.8821C41.2287 28.7846 42.4528 29.2916 43.7291 29.2916ZM32.5 58.1666C25.6927 58.1666 19.1643 55.4625 14.3509 50.649C9.53745 45.8356 6.83329 39.3072 6.83329 32.5C6.83329 25.6927 9.53745 19.1643 14.3509 14.3509C19.1643 9.53745 25.6927 6.83329 32.5 6.83329C39.3072 6.83329 45.8356 9.53745 50.649 14.3509C55.4625 19.1643 58.1666 25.6927 58.1666 32.5C58.1666 39.3072 55.4625 45.8356 50.649 50.649C45.8356 55.4625 39.3072 58.1666 32.5 58.1666ZM32.5 0.416626C14.7579 0.416626 0.416626 14.8541 0.416626 32.5C0.416626 41.009 3.79682 49.1695 9.81362 55.1863C12.7928 58.1655 16.3297 60.5288 20.2222 62.1411C24.1147 63.7534 28.2867 64.5833 32.5 64.5833C41.009 64.5833 49.1695 61.2031 55.1863 55.1863C61.2031 49.1695 64.5833 41.009 64.5833 32.5C64.5833 28.2867 63.7534 24.1147 62.1411 20.2222C60.5288 16.3297 58.1655 12.7928 55.1863 9.81362C52.2071 6.8344 48.6702 4.47116 44.7777 2.85882C40.8852 1.24649 36.7132 0.416626 32.5 0.416626Z" fill="black"/>
</svg>
