<svg width="80" height="60" viewBox="0 0 80 60" fill="none" xmlns="http://www.w3.org/2000/svg">
<path d="M76.5625 43.0625H73.75V9.3125C73.75 7.07474 72.8611 4.92863 71.2787 3.34629C69.6964 1.76395 67.5503 0.875 65.3125 0.875H14.6875C12.4497 0.875 10.3036 1.76395 8.72129 3.34629C7.13895 4.92863 6.25 7.07474 6.25 9.3125V43.0625H3.4375C2.69158 43.0625 1.97621 43.3588 1.44876 43.8863C0.921316 44.4137 0.625 45.1291 0.625 45.875V51.5C0.625 53.7378 1.51395 55.8839 3.09629 57.4662C4.67863 59.0486 6.82474 59.9375 9.0625 59.9375H70.9375C73.1753 59.9375 75.3214 59.0486 76.9037 57.4662C78.4861 55.8839 79.375 53.7378 79.375 51.5V45.875C79.375 45.1291 79.0787 44.4137 78.5512 43.8863C78.0238 43.3588 77.3084 43.0625 76.5625 43.0625ZM11.875 9.3125C11.875 8.56658 12.1713 7.85121 12.6988 7.32376C13.2262 6.79632 13.9416 6.5 14.6875 6.5H65.3125C66.0584 6.5 66.7738 6.79632 67.3012 7.32376C67.8287 7.85121 68.125 8.56658 68.125 9.3125V43.0625H11.875V9.3125ZM73.75 51.5C73.75 52.2459 73.4537 52.9613 72.9262 53.4887C72.3988 54.0162 71.6834 54.3125 70.9375 54.3125H9.0625C8.31658 54.3125 7.60121 54.0162 7.07376 53.4887C6.54632 52.9613 6.25 52.2459 6.25 51.5V48.6875H73.75V51.5ZM48.4375 14.9375C48.4375 15.6834 48.1412 16.3988 47.6137 16.9262C47.0863 17.4537 46.3709 17.75 45.625 17.75H34.375C33.6291 17.75 32.9137 17.4537 32.3863 16.9262C31.8588 16.3988 31.5625 15.6834 31.5625 14.9375C31.5625 14.1916 31.8588 13.4762 32.3863 12.9488C32.9137 12.4213 33.6291 12.125 34.375 12.125H45.625C46.3709 12.125 47.0863 12.4213 47.6137 12.9488C48.1412 13.4762 48.4375 14.1916 48.4375 14.9375Z" fill="black"/>
</svg>
