<svg width="69" height="63" viewBox="0 0 69 63" fill="none" xmlns="http://www.w3.org/2000/svg">
<path d="M12.625 25.125V62.625H0.125V25.125H12.625ZM25.125 62.625C23.4674 62.625 21.8777 61.9665 20.7056 60.7944C19.5335 59.6223 18.875 58.0326 18.875 56.375V25.125C18.875 23.4062 19.5625 21.8438 20.7188 20.7188L41.2812 0.125L44.5938 3.4375C45.4375 4.28125 45.9688 5.4375 45.9688 6.71875L45.875 7.71875L42.9062 22H62.625C64.2826 22 65.8723 22.6585 67.0444 23.8306C68.2165 25.0027 68.875 26.5924 68.875 28.25V34.5C68.875 35.3125 68.7188 36.0625 68.4375 36.7812L59 58.8125C58.0625 61.0625 55.8438 62.625 53.25 62.625H25.125ZM25.125 56.375H53.3438L62.625 34.5V28.25H35.1562L38.6875 11.625L25.125 25.2188V56.375Z" fill="black"/>
</svg>
